<svg width="251" height="44" viewBox="0 0 251 44" fill="none" xmlns="http://www.w3.org/2000/svg">
<path d="M60.48 3.2H77.44L43.36 44H2.16L1.44 43.52L0.96 42.72L0.72 41.92L0.8 40.96L1.36 39.6L15.68 22.72H41.12L35.28 29.2H24.72L22.48 31.92H36.72L60.48 3.2ZM52.655 44L51.455 43.52L50.175 42.4L49.855 41.6L50.015 40.56L63.615 24.32L64.975 23.36L66.575 22.88L68.335 22.48H106.735L107.615 22.88L108.255 23.44V24.48L108.095 25.2L107.775 25.84L107.055 26.88L106.335 27.92L105.695 28.8L99.695 35.84H73.935L78.495 30.48H88.975L91.295 27.76H77.055L67.855 38.64L97.295 38.56L96.255 39.52L95.295 40.48L94.095 41.52L92.895 42.24L91.455 43.04L90.175 43.52L88.575 44H52.655ZM96.9062 44L111.786 26.24L90.1062 0.159997H99.9463L116.826 20.16L118.026 18.8L105.786 4.24H118.506L131.786 20.16L122.746 31.6H136.986L139.546 28.88H128.666L133.946 22.56H160.026L147.146 38.56L146.266 39.28L145.146 40.48L143.946 41.52L142.746 42.24L141.546 42.96L140.026 43.52L138.426 44H96.9062ZM186.214 44H152.134L150.454 43.6L149.414 42.56L149.014 41.36L149.334 39.68L163.654 22.72H183.814L171.174 37.92H176.134L189.094 22.72H203.974L186.214 44ZM202.906 44L213.706 30.96H201.466L208.426 22.8H250.266L243.306 31.04H230.586L219.866 44H202.906Z" fill="#59524E"/>
</svg>
