<svg width="350" height="343" viewBox="0 0 350 343" fill="none" xmlns="http://www.w3.org/2000/svg">
<ellipse cx="174.5" cy="168.5" rx="162.5" ry="160.5" fill="url(#paint0_radial_87_28)"/>
<path d="M179 70C164.97 78.5829 151.071 92.876 138.415 109.958C135.368 114.071 132.393 118.345 129.505 122.74C108.054 155.391 91.4318 194.715 86 224L128.5 201L179 115V70Z" fill="url(#paint1_linear_87_28)"/>
<path d="M176.5 239.5L221.5 205.5L179 115L128.5 201L176.5 239.5Z" fill="url(#paint2_linear_87_28)"/>
<path d="M264 226.5C253.5 188.5 244.5 128 179 70V115L221.5 205.5L264 226.5Z" fill="url(#paint3_linear_87_28)"/>
<path d="M86 224C97 238 134.9 260.9 176.5 266.5V239.5L128.5 201L86 224Z" fill="url(#paint4_linear_87_28)"/>
<path d="M176.5 266.5C202.5 262 241.5 252 264 226.5L221.5 205.5L176.5 239.5V266.5Z" fill="url(#paint5_linear_87_28)"/>
<path d="M179 70C244.5 128 253.5 188.5 264 226.5M179 70V115M179 70C164.97 78.5829 151.071 92.876 138.415 109.958C135.368 114.071 132.393 118.345 129.505 122.74C108.054 155.391 91.4318 194.715 86 224M264 226.5C241.5 252 202.5 262 176.5 266.5M264 226.5L221.5 205.5M176.5 266.5C134.9 260.9 97 238 86 224M176.5 266.5V239.5M86 224L128.5 201M176.5 239.5L221.5 205.5M176.5 239.5L128.5 201M221.5 205.5L179 115M179 115L128.5 201" stroke="#4F3485" stroke-width="3"/>
<path d="M120 111.631C130.102 108.923 134.816 103.508 137.51 92C140.743 100.665 146.939 110.277 153 111.631C144.918 116.369 138.857 121.108 137.51 136C135.49 121.785 128.755 116.369 120 111.631Z" fill="#EBEBEB" stroke="#5C5B5B" stroke-width="3"/>
<defs>
<radialGradient id="paint0_radial_87_28" cx="0" cy="0" r="1" gradientUnits="userSpaceOnUse" gradientTransform="translate(174.5 168.5) rotate(90) scale(160.5 162.5)">
<stop offset="0.485303" stop-color="#4476B5"/>
<stop offset="1" stop-color="#D9D9D9" stop-opacity="0"/>
</radialGradient>
<linearGradient id="paint1_linear_87_28" x1="175" y1="70" x2="175" y2="266.5" gradientUnits="userSpaceOnUse">
<stop stop-color="#4084CD"/>
<stop offset="0.489583" stop-color="#374BB0"/>
<stop offset="0.991202" stop-color="#BB3080"/>
</linearGradient>
<linearGradient id="paint2_linear_87_28" x1="175" y1="70" x2="175" y2="266.5" gradientUnits="userSpaceOnUse">
<stop stop-color="#397FCB"/>
<stop offset="0.489583" stop-color="#4359C7"/>
<stop offset="0.991202" stop-color="#C03B88"/>
</linearGradient>
<linearGradient id="paint3_linear_87_28" x1="175" y1="70" x2="175" y2="266.5" gradientUnits="userSpaceOnUse">
<stop stop-color="#4084CD"/>
<stop offset="0.489583" stop-color="#374BB0"/>
<stop offset="0.991202" stop-color="#BB3080"/>
</linearGradient>
<linearGradient id="paint4_linear_87_28" x1="175" y1="70" x2="175" y2="266.5" gradientUnits="userSpaceOnUse">
<stop stop-color="#4084CD"/>
<stop offset="0.489583" stop-color="#374BB0"/>
<stop offset="0.991202" stop-color="#BB3080"/>
</linearGradient>
<linearGradient id="paint5_linear_87_28" x1="175" y1="70" x2="175" y2="266.5" gradientUnits="userSpaceOnUse">
<stop stop-color="#4084CD"/>
<stop offset="0.489583" stop-color="#374BB0"/>
<stop offset="0.991202" stop-color="#BB3080"/>
</linearGradient>
</defs>
</svg>
