<svg width="350" height="349" viewBox="0 0 350 349" fill="none" xmlns="http://www.w3.org/2000/svg">
<circle cx="171.5" cy="174.5" r="171.5" fill="url(#paint0_radial_87_24)"/>
<path d="M223.5 145.501L172.5 117.501L122.5 145.501V204.501L172.5 233.501L223.5 204.501V145.501Z" fill="url(#paint1_linear_87_24)"/>
<path d="M172.5 117.501L170.5 78.001C146.261 77.8773 105.442 89.7866 86.3173 129.001L122.5 145.501L172.5 117.501Z" fill="url(#paint2_linear_87_24)"/>
<path d="M255.318 125.501C242.485 100.884 217.182 78.2391 170.5 78.001L172.5 117.501L223.5 145.501L255.318 125.501Z" fill="url(#paint3_linear_87_24)"/>
<path d="M267 172.001C267 159.864 264.037 142.227 255.318 125.501L223.5 145.501V204.501L255.318 223.426C262.519 210.277 267 193.468 267 172.001Z" fill="url(#paint4_linear_87_24)"/>
<path d="M223.5 204.501L172.5 233.501V269.501C196.92 267.679 235.953 258.789 255.318 223.426L223.5 204.501Z" fill="url(#paint5_linear_87_24)"/>
<path d="M172.5 233.501L122.5 204.501L91.7181 226.501C104.908 249.369 128.895 269.501 172.5 269.501V233.501Z" fill="url(#paint6_linear_87_24)"/>
<path d="M122.5 204.501V145.501L86.3173 129.001C80.5888 140.748 76.8067 154.944 76 172.001C76.9312 184.573 80.2257 206.576 91.7181 226.501L122.5 204.501Z" fill="url(#paint7_linear_87_24)"/>
<path d="M170.5 78.001C217.182 78.2391 242.485 100.884 255.318 125.501M170.5 78.001L172.5 117.501M170.5 78.001C146.261 77.8773 105.442 89.7866 86.3173 129.001M172.5 269.501C196.92 267.679 235.953 258.789 255.318 223.426M172.5 269.501V233.501M172.5 269.501C128.895 269.501 104.908 249.369 91.7181 226.501M255.318 125.501C264.037 142.227 267 159.864 267 172.001C267 193.468 262.519 210.277 255.318 223.426M255.318 125.501L223.5 145.501M223.5 145.501L172.5 117.501M223.5 145.501V204.501M172.5 117.501L122.5 145.501M122.5 145.501V204.501M122.5 145.501L86.3173 129.001M122.5 204.501L172.5 233.501M122.5 204.501L91.7181 226.501M172.5 233.501L223.5 204.501M223.5 204.501L255.318 223.426M91.7181 226.501C80.2257 206.576 76.9312 184.573 76 172.001C76.8067 154.944 80.5888 140.748 86.3173 129.001" stroke="#70307C" stroke-width="3"/>
<defs>
<radialGradient id="paint0_radial_87_24" cx="0" cy="0" r="1" gradientUnits="userSpaceOnUse" gradientTransform="translate(171.5 174.5) rotate(90) scale(171.5)">
<stop offset="0.581379" stop-color="#6D46BF"/>
<stop offset="1" stop-color="#D9D9D9" stop-opacity="0"/>
</radialGradient>
<linearGradient id="paint1_linear_87_24" x1="171.5" y1="78" x2="171.5" y2="269.501" gradientUnits="userSpaceOnUse">
<stop stop-color="#71DB78"/>
<stop offset="0.497264" stop-color="#CB4C94"/>
<stop offset="1" stop-color="#5D70D3"/>
</linearGradient>
<linearGradient id="paint2_linear_87_24" x1="171.5" y1="78" x2="171.5" y2="269.501" gradientUnits="userSpaceOnUse">
<stop stop-color="#6EDE75"/>
<stop offset="0.497264" stop-color="#BA4F8C"/>
<stop offset="1" stop-color="#4557B6"/>
</linearGradient>
<linearGradient id="paint3_linear_87_24" x1="171.5" y1="78" x2="171.5" y2="269.501" gradientUnits="userSpaceOnUse">
<stop stop-color="#6EDE75"/>
<stop offset="0.497264" stop-color="#BA4F8C"/>
<stop offset="1" stop-color="#4557B6"/>
</linearGradient>
<linearGradient id="paint4_linear_87_24" x1="171.5" y1="78" x2="171.5" y2="269.501" gradientUnits="userSpaceOnUse">
<stop stop-color="#6EDE75"/>
<stop offset="0.497264" stop-color="#BA4F8C"/>
<stop offset="1" stop-color="#4557B6"/>
</linearGradient>
<linearGradient id="paint5_linear_87_24" x1="171.5" y1="78" x2="171.5" y2="269.501" gradientUnits="userSpaceOnUse">
<stop stop-color="#6EDE75"/>
<stop offset="0.497264" stop-color="#BA4F8C"/>
<stop offset="1" stop-color="#4557B6"/>
</linearGradient>
<linearGradient id="paint6_linear_87_24" x1="171.5" y1="78" x2="171.5" y2="269.501" gradientUnits="userSpaceOnUse">
<stop stop-color="#6EDE75"/>
<stop offset="0.497264" stop-color="#BA4F8C"/>
<stop offset="1" stop-color="#4557B6"/>
</linearGradient>
<linearGradient id="paint7_linear_87_24" x1="171.5" y1="78" x2="171.5" y2="269.501" gradientUnits="userSpaceOnUse">
<stop stop-color="#6EDE75"/>
<stop offset="0.497264" stop-color="#BA4F8C"/>
<stop offset="1" stop-color="#4557B6"/>
</linearGradient>
</defs>
</svg>
