<svg width="350" height="343" viewBox="0 0 350 343" fill="none" xmlns="http://www.w3.org/2000/svg">
<circle cx="174.5" cy="168.5" r="119.5" fill="url(#paint0_radial_87_8)"/>
<path d="M180.5 267.5L270.5 155.5H217L180.5 267.5Z" fill="url(#paint1_linear_87_8)"/>
<path d="M90 155.5L180.5 267.5L143 155.5L90 155.5Z" fill="url(#paint2_linear_87_8)"/>
<path d="M90 155.5L143 155.5L118 91L90 155.5Z" fill="url(#paint3_linear_87_8)"/>
<path d="M180.5 91L118 91L143 155.5L180.5 91Z" fill="url(#paint4_linear_87_8)"/>
<path d="M143 155.5H217L180.5 91L143 155.5Z" fill="url(#paint5_linear_87_8)"/>
<path d="M217 155.5L241 91H180.5L217 155.5Z" fill="url(#paint6_linear_87_8)"/>
<path d="M217 155.5H270.5L241 91L217 155.5Z" fill="url(#paint7_linear_87_8)"/>
<path d="M180.5 267.5L217 155.5H143L180.5 267.5Z" fill="url(#paint8_linear_87_8)"/>
<path d="M270.5 155.5L180.5 267.5M270.5 155.5H217M270.5 155.5L241 91M180.5 267.5L90 155.5M180.5 267.5L217 155.5M180.5 267.5L143 155.5M90 155.5L143 155.5M90 155.5L118 91M217 155.5H143M217 155.5L241 91M217 155.5L180.5 91M143 155.5L180.5 91M143 155.5L118 91M118 91L180.5 91M241 91H180.5" stroke="#9C3B6F" stroke-width="3"/>
<path d="M90 107.631C100.102 104.923 104.816 99.5077 107.51 88C110.743 96.6646 116.939 106.277 123 107.631C114.918 112.369 108.857 117.108 107.51 132C105.49 117.785 98.7551 112.369 90 107.631Z" fill="#EBEBEB" stroke="#5C5B5B" stroke-width="3"/>
<defs>
<radialGradient id="paint0_radial_87_8" cx="0" cy="0" r="1" gradientUnits="userSpaceOnUse" gradientTransform="translate(174.5 168.5) rotate(90) scale(119.5)">
<stop offset="0.445818" stop-color="#B55385"/>
<stop offset="1" stop-color="#D9D9D9" stop-opacity="0"/>
</radialGradient>
<linearGradient id="paint1_linear_87_8" x1="179.75" y1="226" x2="180.25" y2="91" gradientUnits="userSpaceOnUse">
<stop stop-color="#B9779C"/>
<stop offset="0.475999" stop-color="#90DB93"/>
<stop offset="1" stop-color="#7ECABF"/>
</linearGradient>
<linearGradient id="paint2_linear_87_8" x1="179.75" y1="226" x2="180.25" y2="91" gradientUnits="userSpaceOnUse">
<stop stop-color="#B9779C"/>
<stop offset="0.475999" stop-color="#90DB93"/>
<stop offset="1" stop-color="#7ECABF"/>
</linearGradient>
<linearGradient id="paint3_linear_87_8" x1="179.75" y1="226" x2="180.25" y2="91" gradientUnits="userSpaceOnUse">
<stop stop-color="#B9779C"/>
<stop offset="0.475999" stop-color="#90DB93"/>
<stop offset="1" stop-color="#7ECABF"/>
</linearGradient>
<linearGradient id="paint4_linear_87_8" x1="179.75" y1="226" x2="180.25" y2="91" gradientUnits="userSpaceOnUse">
<stop stop-color="#B9779C"/>
<stop offset="0.475999" stop-color="#90DB93"/>
<stop offset="1" stop-color="#7ECABF"/>
</linearGradient>
<linearGradient id="paint5_linear_87_8" x1="179.75" y1="226" x2="180.25" y2="91" gradientUnits="userSpaceOnUse">
<stop stop-color="#B9779C"/>
<stop offset="0.475999" stop-color="#90DB93"/>
<stop offset="1" stop-color="#7ECABF"/>
</linearGradient>
<linearGradient id="paint6_linear_87_8" x1="179.75" y1="226" x2="180.25" y2="91" gradientUnits="userSpaceOnUse">
<stop stop-color="#B9779C"/>
<stop offset="0.475999" stop-color="#90DB93"/>
<stop offset="1" stop-color="#7ECABF"/>
</linearGradient>
<linearGradient id="paint7_linear_87_8" x1="179.75" y1="226" x2="180.25" y2="91" gradientUnits="userSpaceOnUse">
<stop stop-color="#B9779C"/>
<stop offset="0.475999" stop-color="#90DB93"/>
<stop offset="1" stop-color="#7ECABF"/>
</linearGradient>
<linearGradient id="paint8_linear_87_8" x1="179.75" y1="226" x2="180.25" y2="91" gradientUnits="userSpaceOnUse">
<stop stop-color="#B9779C"/>
<stop offset="0.475999" stop-color="#90DB93"/>
<stop offset="1" stop-color="#7ECABF"/>
</linearGradient>
</defs>
</svg>
